<?xml version="1.0" encoding="utf-8"?>
<!-- Generator: Adobe Illustrator 15.0.0, SVG Export Plug-In  -->
<!DOCTYPE svg PUBLIC "-//W3C//DTD SVG 1.1//EN" "http://www.w3.org/Graphics/SVG/1.1/DTD/svg11.dtd" [
	<!ENTITY ns_flows "http://ns.adobe.com/Flows/1.0/">
]>
<svg version="1.1"
	 xmlns="http://www.w3.org/2000/svg" xmlns:xlink="http://www.w3.org/1999/xlink" xmlns:a="http://ns.adobe.com/AdobeSVGViewerExtensions/3.0/"
	 x="0px" y="0px" width="24px" height="24px" viewBox="-0.084 -0.083 24 24"
	 overflow="visible" enable-background="new -0.084 -0.083 24 24" xml:space="preserve">
<defs>
</defs>
<path d="M11.916,0l2.207,6.459l6.42-3.049l-3.051,6.259l6.34,2.247l-6.34,2.207l3.051,6.299l-6.42-3.049l-2.207,6.46l-2.167-6.46
	L3.37,20.421l3.049-6.299L0,11.916l6.419-2.247L3.37,3.41L9.75,6.459L11.916,0z M11.916,6.78l-1.284,2.006L8.386,8.305l0.401,2.287
	L6.82,11.916l1.966,1.124l-0.401,2.407l2.247-0.481l1.284,2.087l1.204-2.087l2.407,0.481l-0.562-2.407l2.167-1.124l-2.167-1.324
	l0.562-2.287L13.12,8.787L11.916,6.78z"/>
</svg>
