<?xml version="1.0" encoding="utf-8"?>
<!-- Generator: Adobe Illustrator 15.0.0, SVG Export Plug-In  -->
<!DOCTYPE svg PUBLIC "-//W3C//DTD SVG 1.1//EN" "http://www.w3.org/Graphics/SVG/1.1/DTD/svg11.dtd" [
	<!ENTITY ns_flows "http://ns.adobe.com/Flows/1.0/">
]>
<svg version="1.1"
	 xmlns="http://www.w3.org/2000/svg" xmlns:xlink="http://www.w3.org/1999/xlink" xmlns:a="http://ns.adobe.com/AdobeSVGViewerExtensions/3.0/"
	 x="0px" y="0px" width="36px" height="36px" viewBox="-0.313 -6.004 36 36"
	 overflow="visible" enable-background="new -0.313 -6.004 36 36" xml:space="preserve">
<defs>
</defs>
<path d="M26.276,23.977c5.934,0,9.098-2.655,9.098-11.243c0-8.307-3.56-11.076-8.362-10.285c0.452,0.565,0.791,1.243,0.791,2.769
	c0,2.713-2.091,5.368-4.747,5.368c-1.525,0-2.825-0.225-3.39-0.678c-1.244,0.622-1.752,2.599-1.752,5.707
	C17.913,21.605,20.342,23.977,26.276,23.977z M17.8,22.283c-2.938-3.052-2.486-11.357,0.169-13.335
	c-1.13-0.735-2.034-2.543-1.3-4.86l0.453,0.113c0,2.656,2.259,4.012,4.464,4.012c3.107,0,4.237-1.356,4.237-3.786
	c0-0.904-0.734-1.864-2.203-2.825c-1.526-1.017-3.504-1.865-6.556-1.525c-1.017,0.113-3.39,1.638-4.52,2.486
	C10.454,4.145,9.38,5.84,9.38,11.773c0,7.232,2.317,9.38,4.182,10.058C15.992,22.283,16.839,22.453,17.8,22.283z M8.476,19.966
	c-0.791-2.035-1.413-4.408-1.413-7.063H5.425l0.96,2.937l-0.452,0.17l-1.978-3.446L1.752,16.01l-0.396-0.17l1.017-2.937h-1.13
	C0.396,12.903,0,13.467,0,14.767c0,2.713,1.47,5.199,4.125,5.199H8.476z M8.476,4.201H4.125C1.47,4.201,0,6.687,0,9.399
	c0,1.3,0.396,1.865,1.243,1.865h1.13L1.356,8.326l0.396-0.169l2.204,3.447l1.978-3.447l0.452,0.169l-0.96,2.938h1.638
	C7.063,8.608,7.685,6.235,8.476,4.201z"/>
</svg>
