<?xml version="1.0" encoding="utf-8"?>
<!-- Generator: Adobe Illustrator 15.0.0, SVG Export Plug-In  -->
<!DOCTYPE svg PUBLIC "-//W3C//DTD SVG 1.1//EN" "http://www.w3.org/Graphics/SVG/1.1/DTD/svg11.dtd" [
	<!ENTITY ns_flows "http://ns.adobe.com/Flows/1.0/">
]>
<svg version="1.1"
	 xmlns="http://www.w3.org/2000/svg" xmlns:xlink="http://www.w3.org/1999/xlink" xmlns:a="http://ns.adobe.com/AdobeSVGViewerExtensions/3.0/"
	 x="0px" y="0px" width="36px" height="36px" viewBox="-4.539 -0.18 36 36"
	 overflow="visible" enable-background="new -4.539 -0.18 36 36" xml:space="preserve">
<defs>
</defs>
<path d="M13.83,35.498c8.298,0,13.093-3.228,13.093-9.083c0.046-5.393-3.411-9.035-12.953-9.818c-7.1-0.599-8.391-2.075-8.391-4.149
	c0-2.351,1.798-4.656,8.021-4.656c5.348,0,8.852,1.936,10.511,3.319l1.476-6.04C24.019,2.536,19.684,0,13.507,0
	C5.854,0,1.475,4.288,1.475,9.819c0,5.854,2.536,9.174,12.217,9.912c6.269,0.461,8.852,2.259,8.852,4.518
	c0,2.536-2.443,4.472-8.714,4.472c-4.932,0-10.418-2.535-11.755-5.717L0,29.32C1.429,32.731,7.376,35.498,13.83,35.498z"/>
</svg>
