<?xml version="1.0" standalone="no"?>
<!DOCTYPE svg PUBLIC "-//W3C//DTD SVG 1.1//EN" "http://www.w3.org/Graphics/SVG/1.1/DTD/svg11.dtd" >
<svg xmlns="http://www.w3.org/2000/svg">
<metadata></metadata>
<defs>
<font id="savateregular" horiz-adv-x="1085" >
<font-face units-per-em="2048" ascent="1638" descent="-410" />
<missing-glyph horiz-adv-x="471" />
<glyph horiz-adv-x="0" />
<glyph horiz-adv-x="682" />
<glyph unicode=" "  horiz-adv-x="471" />
<glyph unicode="&#x09;" horiz-adv-x="471" />
<glyph unicode="&#xa0;" horiz-adv-x="471" />
<glyph unicode="!" horiz-adv-x="675" d="M168 1229q0 42 4 79t15.5 76.5t30 67.5t50 46t72.5 18q50 0 85 -26.5t52 -72t24 -91t7 -97.5q0 -136 -44.5 -324.5t-55.5 -294.5q-12 -114 2 -229h-152q14 115 2 229q-10 99 -51 289t-41 330zM195 94q0 64 36 93.5t109 29.5q137 0 137 -123q0 -57 -36 -85.5t-101 -28.5 q-145 0 -145 114z" />
<glyph unicode="&#x22;" horiz-adv-x="778" d="M41 1597h266l-86 -579h-119zM430 1597h266l-86 -579h-118z" />
<glyph unicode="#" d="M51 158l55 254h123l50 290h-138l58 304h133l39 223h123l-39 -223h321l39 223h123l-39 -223h135l-57 -304h-131l-49 -290h139l-41 -254h-143l-45 -260h-129l47 260h-318l-45 -260h-123l45 260h-133zM352 412h318l51 290h-320z" />
<glyph unicode="$" horiz-adv-x="1495" d="M129 254l92 281q41 -98 182 -170.5t299 -81.5v399q-148 14 -248 48t-156.5 91t-79.5 128t-23 171q0 185 135 307t372 129v144h144v-150q152 -19 262.5 -80.5t157.5 -138.5l-66 -268q-55 46 -145 85.5t-209 55.5v-395q253 -37 367 -145t112 -281q0 -176 -124.5 -278 t-354.5 -121v-158h-144v154q-201 9 -364 87.5t-209 186.5zM377 1004q0 -48 23 -80.5t96.5 -59.5t205.5 -41v387q-175 -6 -250 -63t-75 -143zM846 285q146 13 215 64.5t69 129.5q0 68 -69.5 117.5t-214.5 71.5v-383z" />
<glyph unicode="%" horiz-adv-x="1495" d="M102 1266q1 145 75.5 217.5t199.5 72.5q76 0 136.5 -29t100.5 -96.5t41 -164.5q-1 -146 -75 -218.5t-199 -72.5q-56 0 -105 17.5t-88 51.5t-62 91t-24 131zM123 -184l1110 1822h190l-1110 -1822h-190zM205 1255q1 -60 49.5 -89t126.5 -29q169 0 174 118q-3 59 -52 90 t-126 31q-169 0 -172 -121zM891 270q1 146 75 218.5t199 72.5q56 0 105 -17.5t88 -51.5t62 -91t24 -131q-1 -145 -75.5 -217.5t-199.5 -72.5q-76 0 -136.5 29t-100.5 96.5t-41 164.5zM993 260q1 -60 49.5 -89.5t126.5 -29.5q169 0 174 119q-3 59 -52 90t-126 31 q-169 0 -172 -121z" />
<glyph unicode="&#x26;" horiz-adv-x="1495" d="M123 356q0 125 60 220.5t177 140.5q-79 54 -114 145t-35 225q0 210 119 321.5t311 111.5q98 0 174 -37l-39 -301q-28 20 -79 32.5t-97 12.5q-141 0 -212.5 -35.5t-72.5 -114.5q-3 -67 59.5 -106t170.5 -39h252v153h127v-153h211v-297h-211v-213q0 -102 41.5 -143 t126.5 -43q164 0 211 63l59 -193q-24 -48 -98 -86.5t-174 -39.5q-176 -3 -242 100q-46 -52 -130.5 -76t-176.5 -24q-194 0 -306 105t-112 271zM309 455q0 -100 65.5 -159.5t186.5 -59.5q169 0 236 75v2v322h-88q-113 0 -199 18q-82 -4 -141.5 -64.5t-59.5 -133.5z" />
<glyph unicode="'" horiz-adv-x="368" d="M51 1597h266l-86 -579h-118z" />
<glyph unicode="(" horiz-adv-x="675" d="M82 551q0 473 122 748t353 360l-39 -385q-320 -165 -323 -719q0 -208 69 -351t223 -222l56 -412q-226 80 -343.5 329t-117.5 652z" />
<glyph unicode=")" horiz-adv-x="675" d="M221 1659q231 -85 353 -360t122 -748q0 -404 -117 -652.5t-343 -328.5l55 412q155 79 224 222t69 351q-2 266 -81.5 450.5t-242.5 268.5z" />
<glyph unicode="*" horiz-adv-x="880" d="M143 1249l60 191l200 -131l-79 231h217l-62 -231l199 131l59 -191h-250l203 -155l-170 -121l-80 227l-86 -227l-164 121l201 155h-248z" />
<glyph unicode="+" d="M143 545v227h314v354h159v-354h326v-227h-326v-381h-159v381h-314z" />
<glyph unicode="," horiz-adv-x="573" d="M90 -324q49 40 83.5 113t48.5 154t7.5 165.5t-34.5 147.5h258q19 -119 -17 -248t-118 -228.5t-187 -131.5z" />
<glyph unicode="-" horiz-adv-x="675" d="M72 524v152h553v-152h-553z" />
<glyph unicode="." horiz-adv-x="675" d="M162 135q0 79 45 115.5t137 36.5q170 0 170 -152q0 -72 -45 -108.5t-125 -36.5q-182 0 -182 145z" />
<glyph unicode="/" horiz-adv-x="880" d="M72 -410l583 2048h154l-584 -2048h-153z" />
<glyph unicode="0" horiz-adv-x="1290" d="M72 698q0 813 573 813q574 0 574 -813q0 -189 -42 -329t-120 -224t-180.5 -124.5t-231.5 -40.5q-102 0 -188 25t-158 79.5t-122 137.5t-77.5 203.5t-27.5 272.5zM199 698q-1 -100 22.5 -176.5t63 -124.5t98 -78t122 -41.5t140.5 -11.5q78 0 142 11.5t122.5 41.5t98.5 78 t63.5 124.5t22.5 176.5q-3 196 -117.5 306t-331.5 110t-330.5 -110t-115.5 -306z" />
<glyph unicode="1" horiz-adv-x="880" d="M143 926v370q46 0 114.5 26t128.5 74t69 99h200v-1495h-143v1100q-36 -65 -158.5 -119.5t-210.5 -54.5z" />
<glyph unicode="2" horiz-adv-x="1290" d="M123 0v123q186 131 320.5 236.5t252 215.5t178 206.5t60.5 176.5q0 72 -101 136.5t-235 64.5q-125 0 -221.5 -41t-149.5 -106l-67 284q61 93 185 156.5t276 63.5q240 0 367.5 -115t127.5 -322q0 -124 -45 -238.5t-141 -222t-155.5 -162.5t-177.5 -151q-13 -11 -19 -16 h610v-289h-1065z" />
<glyph unicode="3" horiz-adv-x="1290" d="M174 190l100 189q56 -56 165 -87.5t218 -31.5q182 0 275 56.5t90 162.5q-2 49 -29.5 87.5t-88 67.5t-157 36.5t-235.5 -4.5l-156 -17l412 508h-526v338h864l4 -102l-377 -484q208 -15 311 -121.5t103 -314.5q0 -254 -134.5 -373.5t-379.5 -119.5q-139 0 -262 55t-197 155 z" />
<glyph unicode="4" horiz-adv-x="1290" d="M158 371v157h710v734l-430 -734h-280l508 967h348v-967h157v-157h-157v-371h-146v371h-710z" />
<glyph unicode="5" horiz-adv-x="1290" d="M123 303l133 123q40 -71 151 -128.5t255 -57.5q190 0 286 61.5t94 169.5q-2 97 -92 157t-258 60q-257 0 -334 -117l-168 142l144 782h723l10 -336h-647l-64 -354q35 54 135.5 90.5t227.5 36.5q210 0 329 -116.5t119 -348.5q0 -259 -131 -373t-377 -114q-188 0 -331.5 85 t-204.5 238z" />
<glyph unicode="6" horiz-adv-x="1290" d="M143 582q0 217 23.5 379t66 267.5t108.5 170t142.5 91t175.5 26.5q127 0 218 -36t165 -108l-53 -256q-137 82 -338 82q-369 0 -385 -403q115 168 398 168q225 0 354 -130t129 -370q0 -212 -130.5 -347.5t-365.5 -135.5q-253 0 -380.5 148t-127.5 454zM272 465 q3 -99 104.5 -161t274.5 -62q179 0 273 65t94 158q0 114 -84.5 170.5t-282.5 56.5q-104 0 -179.5 -17t-119 -48.5t-63 -71.5t-17.5 -90z" />
<glyph unicode="7" d="M111 1126v369h899v-299q-122 -141 -220 -283t-177.5 -295t-123 -311.5t-43.5 -306.5h-155q0 135 47 306t119.5 325t157 287t161.5 208h-665z" />
<glyph unicode="8" horiz-adv-x="1290" d="M152 426q0 124 47.5 209.5t148.5 140.5q-178 79 -178 328q0 133 68 228t178 139.5t248 44.5q109 0 192.5 -23.5t147 -74.5t96.5 -139.5t33 -211.5q0 -213 -140 -336q187 -109 187 -362q0 -178 -133.5 -283.5t-382.5 -105.5q-236 0 -374 120t-138 326zM281 389 q-2 -75 97 -123.5t286 -48.5q179 0 277.5 67.5t98.5 166.5q4 75 -33.5 133t-105.5 86q-103 -54 -237 -74q-204 -33 -292.5 -83t-90.5 -124zM301 991q0 -54 47.5 -98.5t134.5 -65.5q80 21 181 33q89 11 143.5 21t105.5 28.5t74.5 47t24.5 69.5q2 74 -87.5 114t-260.5 40 q-162 0 -262.5 -60t-100.5 -129z" />
<glyph unicode="9" horiz-adv-x="1290" d="M143 1032q0 218 132 351t364 133q508 0 508 -613q0 -217 -23 -378t-63.5 -264.5t-103.5 -167t-136 -88.5t-168 -25q-293 0 -407 163l49 244q58 -63 139.5 -95t204.5 -32q369 0 385 438q-120 -186 -397 -186q-225 0 -354.5 135.5t-129.5 384.5zM272 969q0 -118 84.5 -176 t282.5 -58q202 0 291.5 63t87.5 171q-2 109 -94.5 162t-284.5 53q-193 0 -280 -59.5t-87 -155.5z" />
<glyph unicode=":" horiz-adv-x="573" d="M111 176q0 79 45 115.5t137 36.5q170 0 170 -152q0 -72 -45 -108.5t-125 -36.5q-182 0 -182 145zM111 791q0 78 45 114.5t137 36.5q170 0 170 -151q0 -72 -45 -109t-125 -37q-182 0 -182 146z" />
<glyph unicode=";" horiz-adv-x="573" d="M90 -324q49 40 83.5 113t48.5 154t7.5 165.5t-34.5 147.5h258q19 -119 -17 -248t-118 -228.5t-187 -131.5zM141 791q0 78 45.5 114.5t137.5 36.5q170 0 170 -151q0 -72 -45 -109t-125 -37q-183 0 -183 146z" />
<glyph unicode="&#x3c;" d="M123 514v201l840 432v-287l-727 -244l727 -198v-254z" />
<glyph unicode="=" d="M143 344v223h799v-223h-799zM143 791v223h799v-223h-799z" />
<glyph unicode="&#x3e;" d="M123 164v254l727 198l-727 244v287l840 -432v-201z" />
<glyph unicode="?" d="M86 1169q83 342 465 342q210 0 329 -119t119 -333q0 -379 -346 -426q-42 -6 -72 -13t-64 -21t-52.5 -39t-18.5 -60q0 -54 48 -144l-103 -16q-92 115 -92 211q0 162 83 242.5t251 99.5q133 14 188.5 51.5t55.5 99.5q0 154 -326 154q-262 0 -340 -149zM354 94 q0 144 146 144q137 0 137 -144q0 -57 -36 -85.5t-101 -28.5q-146 0 -146 114z" />
<glyph unicode="@" horiz-adv-x="1699" d="M61 459q0 219 68.5 410t184 323t270.5 207.5t325 75.5q350 0 534.5 -181t184.5 -549q0 -152 -29 -278t-74.5 -205.5t-103 -134t-111.5 -77.5t-104 -23q-84 0 -133.5 31.5t-68.5 111.5q-49 -70 -137 -108.5t-201 -38.5q-129 0 -209 97t-80 273q0 273 143 452t346 179 q116 0 219.5 -39t157.5 -98l-127 -580q-11 -52 14 -81t84 -29q83 0 150 69t102 177t35 229q0 269 -144.5 411t-463.5 142q-146 0 -275 -55t-224 -153t-150.5 -242.5t-55.5 -315.5q0 -152 35 -267t109.5 -199t198 -127.5t294.5 -43.5q228 0 408 100l61 -133 q-79 -92 -198.5 -145.5t-251.5 -53.5q-206 0 -359 64.5t-244.5 183t-135.5 273.5t-44 348zM494 434q-3 -86 59.5 -145t159.5 -60q91 -2 167.5 22t120.5 73l76 358q-44 28 -109.5 45.5t-133.5 17.5q-149 0 -241.5 -87t-98.5 -224z" />
<glyph unicode="A" horiz-adv-x="1495" d="M86 0l524 1495h252l547 -1495h-152l-157 414h-606l-162 -414h-246zM555 569h485l-239 625z" />
<glyph unicode="B" horiz-adv-x="1392" d="M172 0v1495h533q240 0 365.5 -108t125.5 -283q0 -114 -18.5 -185t-52.5 -108t-93 -61q108 -38 152.5 -117t44.5 -227q0 -180 -127.5 -293t-358.5 -113h-571zM319 328h494q129 0 195.5 52t66.5 130t-61.5 121t-206.5 43h-488v-346zM319 821h494q134 0 185 46.5t51 129.5 q0 73 -64 121.5t-213 48.5h-453v-346z" />
<glyph unicode="C" horiz-adv-x="1495" d="M154 725q0 208 45 362.5t128 247.5t193 137q107 44 240 44h6q114 -1 203 -22t165 -67.5t129.5 -127.5t82.5 -197l-140 -117q-118 148 -440 148q-229 0 -356 -115.5t-129 -317.5v-6q0 -201 123 -315q125 -115 370 -115q175 0 301 69t166 189l121 -92q-52 -219 -207 -334.5 t-410 -115.5q-273 0 -432 189t-159 556z" />
<glyph unicode="D" horiz-adv-x="1597" d="M287 0v1495h497q141 0 254 -42.5t198.5 -131.5t132 -237.5t46.5 -348.5q0 -735 -622 -735h-506zM434 295h428q108 0 205.5 50.5t160 147.5t62.5 216q0 187 -127.5 307.5t-335.5 120.5h-393v-842z" />
<glyph unicode="E" horiz-adv-x="1290" d="M184 0v1495h910v-369h-764v-311h577v-176h-577v-371h776v-268h-922z" />
<glyph unicode="F" horiz-adv-x="1290" d="M266 0v1495h881v-375h-733v-309h573v-262h-573v-549h-148z" />
<glyph unicode="G" horiz-adv-x="1597" d="M184 725q0 209 46 363.5t130.5 247t195 136.5t247.5 44q226 0 373 -102.5t208 -303.5l-141 -117q-130 160 -440 160q-123 0 -218 -36.5t-153.5 -101.5t-88 -148.5t-30.5 -182.5q0 -195 128.5 -307.5t361.5 -112.5q214 0 339 82t138 250h-420v149h543v-745h-111l-20 166 q-141 -186 -473 -186q-286 0 -450.5 188t-164.5 557z" />
<glyph unicode="H" horiz-adv-x="1597" d="M256 0v1495h145v-573h795v573h145v-1495h-145v563h-795v-563h-145z" />
<glyph unicode="I" horiz-adv-x="983" d="M123 0v289h299v837h-287v369h713v-369h-279v-837h291v-289h-737z" />
<glyph unicode="J" horiz-adv-x="1187" d="M205 119l53 233q57 -42 138 -65t161 -23q130 0 201 89.5t71 273.5v510h-432v358h576v-930q0 -311 -98 -448t-310 -137q-111 0 -214.5 37t-145.5 102z" />
<glyph unicode="K" horiz-adv-x="1290" d="M184 0v1499h146v-661l573 657h412l-643 -696l563 -799h-182l-488 682l-235 -254v-428h-146z" />
<glyph unicode="L" d="M174 0v1495h139v-1198h619v-297h-758z" />
<glyph unicode="M" horiz-adv-x="1802" d="M184 0v1495h338l389 -1251l396 1251h311v-1495h-143v1202l-433 -1202h-245l-459 1210v-1210h-154z" />
<glyph unicode="N" horiz-adv-x="1597" d="M215 0v1495h340l680 -1278v1278h147v-1495h-299l-721 1208v-1208h-147z" />
<glyph unicode="O" horiz-adv-x="1495" d="M139 719q0 211 44 366.5t126 248.5t191 137.5t248 44.5q110 0 201.5 -27.5t168 -88t128.5 -152.5t81 -226t29 -303q0 -189 -45 -332.5t-127 -231.5t-191.5 -131.5t-244.5 -43.5q-107 0 -198.5 27t-168 85t-130 143.5t-83 208.5t-29.5 275zM266 719v-6q0 -119 37 -207 q38 -90 106.5 -142t152.5 -76t186 -24q104 0 188 23.5t152 74.5q68 52 106 142q37 88 37 209v6q-3 179 -128 287t-355 108q-231 0 -355.5 -108t-126.5 -287z" />
<glyph unicode="P" horiz-adv-x="1392" d="M215 0v1495h451q281 0 422 -135t141 -438q0 -274 -141 -403.5t-424 -129.5h-304v-389h-145zM360 692h385q169 0 265 66q95 64 94 160q0 110 -94 176q-92 64 -265 65h-385v-467z" />
<glyph unicode="Q" horiz-adv-x="1495" d="M119 719q0 169 29 303t81 226t128.5 152.5t168 88t201.5 27.5t201.5 -27.5t168 -88t128.5 -152.5t81 -226t29 -303q0 -394 -192 -586l203 -307h-185l-137 221q-128 -67 -297 -67q-135 0 -244 43.5t-191.5 131.5t-127.5 231.5t-45 332.5zM246 719v-6q0 -119 37 -207 q38 -91 106 -142.5t152 -75.5t186 -24q82 0 152 15l-187 299h160l164 -250q194 107 194 383v8q-3 179 -128 287t-355 108q-231 0 -355 -108t-126 -287z" />
<glyph unicode="R" horiz-adv-x="1495" d="M215 0v1495h492q520 0 520 -479q0 -181 -64.5 -279t-210.5 -127q99 -69 121 -204q15 -90 41.5 -127t75.5 -37q76 0 104 28l52 -190q-16 -50 -68 -75t-107 -25q-169 0 -227 360q-12 76 -72.5 118t-152.5 42h-359v-500h-145zM360 784h426q162 0 240 48q76 47 76 133 q0 200 -316 200h-426v-381z" />
<glyph unicode="S" horiz-adv-x="1495" d="M150 254l92 281q44 -105 200 -179.5t322 -74.5q199 0 293 53.5t94 144.5q0 79 -96.5 133t-296.5 68q-159 12 -266 45t-167.5 90.5t-85 130t-24.5 174.5q0 190 143.5 313t391.5 123q193 0 335.5 -66t200.5 -159l-65 -268q-71 59 -189 103t-278 44q-99 0 -171.5 -17 t-111.5 -47.5t-56.5 -65t-17.5 -76.5q0 -38 14.5 -64.5t53.5 -51.5t114.5 -42t190.5 -27q306 -25 442 -136q134 -109 134 -295v-5q0 -194 -152 -298.5t-430 -104.5q-214 0 -390 79.5t-224 194.5z" />
<glyph unicode="T" horiz-adv-x="1187" d="M72 1126v369h1044v-369h-446v-1126h-146v1126h-452z" />
<glyph unicode="U" horiz-adv-x="1495" d="M164 602v893h135v-739q0 -226 88 -316q123 -123 367 -123q238 0 352 123q86 96 86 299v756h139v-889q0 -318 -152.5 -472t-430.5 -154q-131 0 -236 37t-183.5 111t-121.5 194.5t-43 279.5z" />
<glyph unicode="V" horiz-adv-x="1495" d="M41 1495h160l469 -1223l477 1221h307l-602 -1493h-252z" />
<glyph unicode="W" horiz-adv-x="1802" d="M-20 1495h151l354 -1214l326 946h119l289 -928l342 1194h262l-451 -1493h-223l-236 758l-270 -758h-231z" />
<glyph unicode="X" horiz-adv-x="1597" d="M143 0l521 829l-476 707h162l395 -573l359 573h321l-505 -825l489 -711h-188l-385 573l-351 -573h-342z" />
<glyph unicode="Y" horiz-adv-x="1392" d="M61 1495h150l407 -764l408 764h305l-575 -1020v-475h-146v516z" />
<glyph unicode="Z" horiz-adv-x="1495" d="M143 0v84l795 1032h-727v379h1141v-63l-860 -1143h819v-289h-1168z" />
<glyph unicode="[" horiz-adv-x="675" d="M123 -410v2048h405v-356h-262v-1335h262v-357h-405z" />
<glyph unicode="\" horiz-adv-x="880" d="M72 1638h153l584 -2048h-154z" />
<glyph unicode="]" horiz-adv-x="675" d="M250 -53h262v1335h-262v356h405v-2048h-405v357z" />
<glyph unicode="^" d="M164 481v70q94 16 196.5 104t155.5 185h41q53 -97 155.5 -185t196.5 -104v-70q-113 -8 -228 22.5t-144 88.5q-29 -58 -144.5 -88.5t-228.5 -22.5z" />
<glyph unicode="_" d="M31 0v145h1024v-145h-1024z" />
<glyph unicode="`" d="M256 1597q110 22 229.5 -8.5t215 -108t130.5 -180.5l-24 -45q-82 94 -252.5 119.5t-288.5 -35.5z" />
<glyph unicode="a" d="M96 317q0 168 109 260.5t301 92.5q85 0 175.5 -19t149.5 -59q-7 144 -76.5 208t-215.5 64q-231 0 -332 -121l-8 265q118 139 360 139q108 0 181.5 -25t124.5 -83t74.5 -154t23.5 -238v-647h-82l-27 72q-109 -92 -328 -92q-212 0 -321 91t-109 246zM256 354 q0 -64 78.5 -111.5t193.5 -47.5q209 0 306 90v145q-125 94 -291 94q-139 0 -213 -46t-74 -124z" />
<glyph unicode="b" d="M113 0v1597h133v-653q33 72 91.5 119t120 65t132.5 19h5q196 0 306 -142q111 -144 111 -460q0 -269 -113.5 -417t-318.5 -148q-109 0 -199 54t-141 142l-15 -176h-112zM246 342q50 -68 123 -94.5t198 -26.5q160 0 243 86q81 84 81 231v7q0 124 -81 197t-235 73 q-326 0 -329 -270v-203z" />
<glyph unicode="c" d="M102 555q0 155 34 271.5t95 185t139 102t173 33.5q320 0 420 -277l-95 -178q-49 63 -122.5 97t-192.5 34q-151 0 -240 -73.5t-90 -204.5v-7q1 -138 81 -226q82 -92 249 -91q128 0 205.5 36.5t118.5 117.5l106 -146q-53 -121 -164.5 -185t-275.5 -64q-203 0 -322 145 t-119 430z" />
<glyph unicode="d" d="M72 545q0 316 112 460q111 142 309 142h5q249 -4 340 -203v653h133v-1597h-113l-14 176q-49 -88 -139 -142t-199 -54q-206 0 -320 148.5t-114 416.5zM193 545v-7q0 -144 81 -230q83 -88 240 -87q122 0 198 26.5t126 96.5v201q-2 123 -80.5 196.5t-247.5 73.5 q-151 0 -234 -75.5t-83 -194.5z" />
<glyph unicode="e" d="M92 547q0 127 24.5 229.5t66.5 170.5t101.5 114t126 66t142.5 20q217 0 339 -166.5t122 -505.5h-797q20 -133 106 -199.5t230 -68.5h8q124 0 197 29q75 30 121 94l96 -72q-53 -123 -163.5 -200.5t-254.5 -77.5q-224 0 -344.5 155t-120.5 412zM217 608h664q0 99 -94 173.5 t-244 74.5q-120 0 -212.5 -67t-113.5 -181z" />
<glyph unicode="f" horiz-adv-x="675" d="M45 750v335h160q-7 67 -7 126q0 174 64 273q85 134 242 134q98 0 182 -66l-16 -264q-43 31 -127 31q-92 0 -153 -63q-51 -52 -51 -133q0 -18 3 -38h250v-335h-252v-750h-133v750h-162z" />
<glyph unicode="g" horiz-adv-x="1187" d="M102 -248l52 178q54 -80 174.5 -128t271.5 -48q156 0 231.5 41t75.5 101q0 42 -40 70t-99 28q-56 0 -181.5 -14.5t-197.5 -14.5q-115 0 -179.5 72.5t-66.5 167.5v10q0 51 19 99q22 52 69 87q-86 92 -86 263q0 133 29.5 228t87 150t133 80t174.5 25q241 0 344 -139 q61 122 237 122q32 0 67 -4l-74 -260q-11 3 -29 7.5t-62 4.5t-73 -16q22 -86 22 -194q0 -91 -27.5 -161t-70 -111.5t-101.5 -68.5t-115.5 -36.5t-117.5 -9.5q-120 0 -204 32q-65 -33 -62 -88q1 -51 28 -76.5t72 -25.5q62 0 187 18t198 19h4q140 0 211 -75q72 -76 72 -210 q0 -54 -18 -106.5t-57 -101t-95 -85t-138.5 -58.5t-180.5 -22q-167 0 -306.5 72t-177.5 178zM281 657q0 -83 73 -141.5t215 -58.5q139 0 218 61.5t79 138.5q-2 91 -76 141t-221 50q-285 0 -288 -191z" />
<glyph unicode="h" d="M119 0v1597h131v-661q43 101 136 156t220 55q128 0 205 -47.5t116.5 -163t39.5 -313.5v-623h-129v494q0 301 -267 301q-246 0 -321 -203v-592h-131z" />
<glyph unicode="i" horiz-adv-x="675" d="M113 750v335h389v-1085h-133v750h-256zM152 1452q0 87 45 126.5t139 39.5q176 0 176 -166q0 -85 -47 -128.5t-129 -43.5q-184 0 -184 172z" />
<glyph unicode="j" horiz-adv-x="675" d="M-37 -303l57 205q33 -36 77 -52q39 -14 76 -14h9q78 3 117 44.5t39 142.5v731h-256v352h389v-1243q0 -141 -65 -217t-185 -76q-94 0 -159.5 36.5t-98.5 90.5zM121 1452q0 87 45 126.5t139 39.5q176 0 176 -166q0 -85 -47 -128.5t-129 -43.5q-184 0 -184 172z" />
<glyph unicode="k" d="M125 0v1597h131v-911l373 440h368l-444 -491l483 -635h-170l-405 532l-205 -227v-305h-131z" />
<glyph unicode="l" horiz-adv-x="778" d="M86 1290v307h320v-1136q0 -96 38.5 -145.5t124.5 -49.5q122 0 183 64l57 -224q-86 -126 -277 -126q-136 0 -201 77.5t-65 247.5v985h-180z" />
<glyph unicode="m" horiz-adv-x="1699" d="M113 0v1126h133v-178q38 95 115 147t178 52q141 0 220 -57t115 -191q42 117 136.5 182.5t208.5 65.5q133 0 211.5 -48t117.5 -163t39 -315v-621h-129v494q0 157 -59 229t-191 72q-224 0 -295 -209v-586h-129v494q0 164 -58 232.5t-204 68.5q-95 0 -167.5 -49.5 t-108.5 -145.5v-600h-133z" />
<glyph unicode="n" d="M113 0v1126h133v-184q44 99 132.5 152t205.5 53q140 0 223 -48t124.5 -163t41.5 -315v-621h-129v494q0 158 -63.5 230.5t-207.5 72.5q-249 0 -327 -203v-594h-133z" />
<glyph unicode="o" d="M72 543q0 313 125 458.5t346 145.5q222 0 346.5 -145t124.5 -459q0 -283 -127.5 -423t-343.5 -140q-104 0 -188.5 33.5t-148.5 100.5t-99 176t-35 253zM193 543v-6q1 -84 27 -147q28 -65 77 -101t110 -53t136 -17t136 17t111 53q48 36 76 101q27 63 27 147v6 q-2 127 -92 203.5t-258 76.5q-167 0 -257.5 -76.5t-92.5 -203.5z" />
<glyph unicode="p" d="M113 -410v1536h133v-180q48 101 139 151t195 50q426 0 426 -619q0 -268 -121.5 -408t-317.5 -140q-187 0 -321 151v-541h-133zM246 387q37 -77 122.5 -120.5t190.5 -45.5h11q149 0 230 77q83 79 83 243q0 133 -86 209.5t-232 76.5q-163 0 -241 -64.5t-78 -176.5v-199z " />
<glyph unicode="q" d="M80 539q0 608 428 608q101 0 192.5 -51t139.5 -152v182h133v-1536h-133v541q-130 -151 -320 -151q-200 0 -320 140t-120 419zM203 532v-7q0 -140 77 -221q78 -83 228 -83q240 0 332 166v184q-2 125 -76 189.5t-244 64.5q-151 0 -234 -77t-83 -216z" />
<glyph unicode="r" horiz-adv-x="880" d="M133 772v354h174l70 -159q33 87 99 133.5t134 46.5t110.5 -18.5t88.5 -57.5l-78 -340q-19 40 -58 58t-108 18q-77 0 -125.5 -59t-48.5 -164v-584h-135v772h-123z" />
<glyph unicode="s" d="M131 190l49 205q118 -153 352 -153q130 0 195.5 37t65.5 94q0 84 -248 110q-103 11 -172 32t-117.5 61t-70 102t-21.5 153q0 316 379 316q272 0 375 -180l-39 -215q-98 122 -320 122q-112 0 -177 -38t-65 -97q0 -42 55 -68.5t185 -39.5q217 -21 308 -102t91 -244 q0 -152 -103.5 -228.5t-303.5 -76.5q-306 0 -418 210z" />
<glyph unicode="t" horiz-adv-x="880" d="M84 786v320h162v266h133v-266h307v-320h-307v-331q0 -198 170 -201h7q58 0 105 16q50 18 76 47l56 -206q-27 -60 -103.5 -95.5t-167.5 -35.5q-276 0 -276 333v473h-162z" />
<glyph unicode="u" d="M113 465v661h131v-555q0 -177 59 -247t215 -70q116 0 200.5 49.5t121.5 136.5v686h133v-1126h-125l-10 180q-42 -89 -134 -144.5t-219 -55.5q-88 0 -154.5 25.5t-116.5 81t-75.5 150.5t-25.5 228z" />
<glyph unicode="v" d="M41 1126h143l320 -870l287 870h253l-399 -1126h-194z" />
<glyph unicode="w" horiz-adv-x="1597" d="M82 1126h149l250 -854l213 652h113l221 -654l242 856h246l-345 -1126h-176l-192 549l-189 -549h-190z" />
<glyph unicode="x" d="M61 0l369 586l-344 540h170l254 -405l235 405h279l-354 -585l352 -541h-170l-258 408l-229 -408h-304z" />
<glyph unicode="y" d="M29 -252l57 197q42 -51 98 -80t107 -29q72 0 115.5 32t74.5 118l31 80q-54 137 -165 402t-195 462l-84 196h247q205 -524 303 -776l291 776h135l-440 -1206q-22 -58 -35.5 -93.5t-33 -77.5t-35.5 -65.5t-38.5 -48.5t-46.5 -37t-55.5 -20t-68.5 -8q-86 0 -171 54t-91 124z " />
<glyph unicode="z" d="M78 0l557 805h-471v321h844l-570 -847h520v-279h-880z" />
<glyph unicode="{" horiz-adv-x="675" d="M20 397v353q84 -16 123 13t39 71q-7 159 7 285.5t45 214t81 153.5t107.5 105.5t132.5 66.5l-39 -385q-80 -20 -133 -82t-75 -175t-3 -265q8 -64 -27.5 -107.5t-125.5 -75.5q89 -20 124 -73t27 -121q-21 -171 26 -269.5t156 -123.5l56 -412q-90 31 -157 85t-117 138.5 t-72 210.5t-13 289q0 48 -40.5 83t-121.5 21z" />
<glyph unicode="|" horiz-adv-x="675" d="M264 -410v2048h148v-2048h-148z" />
<glyph unicode="}" horiz-adv-x="675" d="M225 1659q75 -27 132.5 -66.5t107.5 -105.5t81 -153.5t45 -214t7 -285.5q0 -42 39 -71t123 -13v-353q-81 14 -121.5 -21t-40.5 -83q9 -163 -12.5 -289t-71.5 -210.5t-117 -138.5t-157 -85l55 412q109 25 156 123.5t26 269.5q-8 68 27.5 121t124.5 73q-91 32 -126.5 75.5 t-27.5 107.5q19 152 -3 265t-75 175t-133 82z" />
<glyph unicode="~" d="M158 551q43 123 144 187.5t224 31.5q119 -30 218.5 -27.5t129.5 35.5l15 -26q-51 -129 -157.5 -187t-211.5 -22q-131 39 -221 31t-127 -50z" />
<glyph unicode="&#xa1;" horiz-adv-x="675" d="M168 -143q0 141 41 348.5t51 300.5q12 114 -2 229h152q-14 -115 -2 -229q11 -102 55.5 -307t44.5 -342q0 -52 -7 -97.5t-24 -91t-52 -72t-85 -26.5q-41 0 -72.5 18t-50 46t-30 67.5t-15.5 76.5t-4 79zM195 1022q0 115 145 115q65 0 101 -29t36 -86q0 -123 -137 -123 q-73 0 -109 29.5t-36 93.5z" />
<glyph unicode="&#xa2;" d="M82 555q0 155 33.5 271.5t94.5 185t139 102t173 33.5q42 0 60 -2l30 155h154l-37 -190q149 -65 213 -240l-94 -178q-72 90 -178 115l-113 -586q115 3 187 40t112 114l107 -146q-53 -121 -165 -185t-276 -64h-12l-31 -154h-153l34 182q-131 49 -204.5 186.5t-73.5 360.5z M203 545q-2 -110 49 -192t154 -113l114 583q-146 -3 -231 -76.5t-86 -201.5z" />
<glyph unicode="&#xa3;" horiz-adv-x="1290" d="M127 590v186h223q-68 45 -109.5 127.5t-41.5 200.5q0 194 127.5 303t337.5 109q156 0 276.5 -59t198.5 -167l-70 -274q-56 59 -171.5 101t-223.5 42q-142 0 -216.5 -50t-74.5 -120q0 -42 17.5 -76.5t37.5 -51.5t56.5 -43.5t52.5 -41.5h354v-186h-291 q-12 -94 -74.5 -183.5t-152.5 -138.5q50 21 113 36t100 15q56 0 139 -21t119 -22q192 -3 279 101l32 -209q-34 -86 -137 -136t-223 -52q-74 0 -136.5 15t-98.5 33t-87 33t-106 15q-95 0 -145 -6t-70 -27l-25 166q145 104 210 202.5t65 178.5h-285z" />
<glyph unicode="&#xa4;" d="M113 250l102 119q-61 103 -61 262q0 183 61 287l-102 118l118 111l97 -113q91 49 219 49q129 0 213 -47l94 111l119 -111l-96 -114q63 -108 63 -291q0 -167 -66 -271l99 -110l-117 -113l-100 115q-86 -45 -209 -45q-127 0 -215 49l-103 -119zM264 631q0 -252 283 -252 q133 0 208 58t74 194q-2 101 -71.5 159t-210.5 58t-211 -58t-72 -159z" />
<glyph unicode="&#xa5;" horiz-adv-x="1597" d="M41 1495h149l408 -764l408 764h305l-443 -784h228v-166h-322l-39 -70v-51h361v-166h-361v-258h-145v258h-309v166h309v92l-17 29h-292v166h200z" />
<glyph unicode="&#xa6;" horiz-adv-x="675" d="M264 -410v836l148 41v-877h-148zM264 743v895h148v-854z" />
<glyph unicode="&#xa7;" d="M127 190l49 199q52 -67 132.5 -103t223.5 -36q259 0 259 123q0 44 -50.5 69t-195.5 41q-212 23 -297.5 95t-85.5 223q0 136 88 205q-88 88 -88 294q0 65 22 120.5t67 100t121 70t175 25.5q145 0 231 -42.5t135 -129.5l-41 -187q-40 50 -109.5 74.5t-203.5 24.5 q-240 0 -240 -131q0 -22 7 -37t29.5 -31.5t72.5 -28.5t129 -20q156 -16 243.5 -56.5t122.5 -105.5t35 -170q0 -124 -102 -194q102 -92 102 -287q0 -64 -23.5 -119t-70.5 -99.5t-128 -70.5t-187 -26q-97 0 -169.5 16t-120 47.5t-77 65t-55.5 81.5zM319 821q0 -46 13 -68 t64.5 -38.5t160.5 -26.5q103 -9 180 -37q26 18 37.5 46t16.5 75q0 44 -19.5 66.5t-70 36.5t-156.5 26q-110 13 -176 35q-50 -36 -50 -115z" />
<glyph unicode="&#xa8;" d="M176 1495q0 71 40.5 104t123.5 33q152 0 152 -137q0 -65 -40 -98t-112 -33q-164 0 -164 131zM606 1495q0 71 40.5 104t123.5 33q152 0 152 -137q0 -65 -40 -98t-112 -33q-164 0 -164 131z" />
<glyph unicode="&#xa9;" horiz-adv-x="675" d="M37 1180q1 163 80 245t215 82q62 0 115.5 -19.5t97 -58t68.5 -102t26 -145.5q-1 -163 -83 -245.5t-218 -82.5q-83 0 -149 33.5t-108.5 109t-43.5 183.5zM94 1180q4 -119 70 -177.5t174 -58.5q53 0 93 10.5t75 36t54.5 73.5t21.5 118q0 100 -73 167.5t-177 67.5 q-100 0 -169 -67t-69 -170zM176 1171q0 100 43 145.5t115 45.5q59 0 95 -23t50 -79l-35 -31q-29 37 -110 37q-119 0 -119 -101q0 -104 121 -104q45 0 76.5 17.5t40.5 47.5l30 -22q-24 -113 -153 -113q-70 0 -112 44.5t-42 135.5z" />
<glyph unicode="&#xaa;" horiz-adv-x="675" d="M41 961q0 109 72.5 170t199.5 61q142 0 217 -51q-6 95 -53 137.5t-143 42.5q-154 0 -219 -80l-6 174q77 92 239 92q142 0 206 -73t64 -256v-426h-57l-18 47q-68 -62 -215 -62q-140 0 -213.5 61t-73.5 163zM145 985q0 -42 53.5 -72t129.5 -30q142 0 202 57v94 q-78 58 -192 58q-94 0 -143.5 -28t-49.5 -79z" />
<glyph unicode="&#xab;" horiz-adv-x="983" d="M41 555l330 612v-430l-228 -182l213 -137v-438zM451 555l329 612v-430l-227 -182l213 -137v-438z" />
<glyph unicode="&#xac;" d="M143 750v264h799v-666h-158v402h-641z" />
<glyph unicode="&#xad;" horiz-adv-x="675" d="M72 524v152h553v-152h-553z" />
<glyph unicode="&#xae;" horiz-adv-x="675" d="M37 1180q1 163 80 245t215 82q62 0 115.5 -19.5t97 -58t68.5 -102t26 -145.5q-1 -163 -83 -245.5t-218 -82.5q-83 0 -149 33.5t-108.5 109t-43.5 183.5zM94 1180q4 -119 70 -177.5t174 -58.5q53 0 93 10.5t75 36t54.5 73.5t21.5 118q0 100 -73 167.5t-177 67.5 q-100 0 -169 -67t-69 -170zM207 997v359h127q135 0 135 -113q0 -85 -72 -100q25 -15 31 -47q3 -22 8.5 -29.5t18.5 -7.5q20 0 26 6l13 -47q-4 -12 -17 -18.5t-26 -6.5q-47 0 -60 86q-6 35 -55 35h-88v-117h-41zM248 1186h106q40 0 60 12t18 33q0 23 -18 32t-60 9h-106v-86z " />
<glyph unicode="&#xaf;" d="M186 1333v203h713v-203h-713z" />
<glyph unicode="&#xb0;" horiz-adv-x="573" d="M41 1280q1 131 68 197.5t176 66.5q66 0 120 -26.5t90 -88t37 -149.5q-1 -131 -67.5 -197.5t-175.5 -66.5q-66 0 -120.5 26.5t-90.5 88t-37 149.5zM129 1280q1 -68 46 -102.5t114 -34.5q152 0 157 137q-3 59 -47.5 88t-113.5 29q-153 0 -156 -117z" />
<glyph unicode="&#xb1;" d="M127 143v224h791v-224h-791zM147 670v223h304v233h157v-233h330v-223h-330v-199h-157v199h-304z" />
<glyph unicode="&#xb4;" d="M254 1300q35 102 130.5 179t215.5 108t229 10l-10 -258q-119 61 -288.5 35.5t-251.5 -119.5z" />
<glyph unicode="&#xb6;" horiz-adv-x="1290" d="M143 1024q0 257 157 384.5t437 127.5h430v-1536h-143v1214h-143v-1214h-144v553q-281 0 -437.5 122t-156.5 349z" />
<glyph unicode="&#xb7;" horiz-adv-x="471" d="M141 565q0 78 45.5 115t137.5 37q170 0 170 -152q0 -72 -45 -108.5t-125 -36.5q-183 0 -183 145z" />
<glyph unicode="&#xb8;" d="M289 -322l71 115q16 -28 65 -47.5t114 -19.5q97 0 131.5 11.5t34.5 39.5q0 16 -15 27.5t-39 11.5q-19 0 -61 -4.5t-58 -4.5q-46 0 -77 21.5t-31 58.5q0 78 43 133l98 -20q-14 -20 -14 -51q0 -13 8 -20t36.5 -12t80.5 -5q55 0 89 -35t34 -106q0 -201 -271 -201 q-85 0 -156.5 28.5t-82.5 79.5z" />
<glyph unicode="&#xba;" horiz-adv-x="675" d="M25 1108q0 207 83.5 303t229.5 96t229.5 -96t83.5 -303q0 -186 -85.5 -278.5t-227.5 -92.5t-227.5 92.5t-85.5 278.5zM109 1108q-1 -112 62 -162.5t167 -50.5t167 50.5t62 162.5q-2 85 -59.5 135.5t-169.5 50.5q-110 0 -168.5 -50.5t-60.5 -135.5z" />
<glyph unicode="&#xbb;" horiz-adv-x="880" d="M2 737v430l330 -612l-316 -575v438l213 137zM412 737v430l329 -612l-315 -575v438l213 137z" />
<glyph unicode="&#xbf;" d="M86 -88l125 121q38 -73 125.5 -111.5t214.5 -38.5q326 0 326 154q0 62 -55.5 99.5t-188.5 51.5q-334 38 -334 363q0 96 92 211l103 -17q-48 -90 -48 -143q0 -46 34.5 -80t78 -50t94.5 -23q346 -47 346 -426q0 -214 -119 -333.5t-329 -119.5q-382 0 -465 342zM354 1028 q0 115 146 115q65 0 101 -29t36 -86q0 -143 -137 -143q-146 0 -146 143z" />
<glyph unicode="&#xc0;" horiz-adv-x="1495" d="M66 0l524 1495h252l547 -1495h-152l-158 414h-606l-162 -414h-245zM483 1925q110 22 230 -8.5t215.5 -108t130.5 -180.5l-25 -45q-82 94 -252 119.5t-288 -35.5zM535 569h485l-240 625z" />
<glyph unicode="&#xc1;" horiz-adv-x="1495" d="M66 0l524 1495h252l547 -1495h-152l-158 414h-606l-162 -414h-245zM420 1628q35 102 130.5 179t215.5 108t229 10l-10 -258q-119 61 -289 35.5t-252 -119.5zM535 569h485l-240 625z" />
<glyph unicode="&#xc2;" horiz-adv-x="1495" d="M66 0l524 1495h252l547 -1495h-152l-158 414h-606l-162 -414h-245zM375 1608v69q94 16 196.5 104t155.5 185h41q53 -97 155.5 -185t196.5 -104v-69q-114 -8 -228.5 22t-143.5 88q-29 -58 -144 -88t-229 -22zM535 569h485l-240 625z" />
<glyph unicode="&#xc3;" horiz-adv-x="1495" d="M66 0l524 1495h252l547 -1495h-152l-158 414h-606l-162 -414h-245zM383 1636q43 123 144.5 187.5t224.5 31.5q119 -30 218.5 -27t129.5 36l14 -27q-51 -129 -157.5 -187t-211.5 -22q-130 39 -220.5 31.5t-127.5 -49.5zM535 569h485l-240 625z" />
<glyph unicode="&#xc4;" horiz-adv-x="1495" d="M66 0l524 1495h252l547 -1495h-152l-158 414h-606l-162 -414h-245zM375 1741q0 71 40.5 104t123.5 33q151 0 151 -137q0 -65 -39.5 -98t-111.5 -33q-164 0 -164 131zM535 569h485l-240 625zM805 1741q0 71 40.5 104t123.5 33q151 0 151 -137q0 -65 -39.5 -98t-111.5 -33 q-164 0 -164 131z" />
<glyph unicode="&#xc5;" horiz-adv-x="1495" d="M66 0l524 1495h252l547 -1495h-152l-158 414h-606l-162 -414h-245zM532 1812q1 114 58 169t155 55q93 0 155 -56t63 -168q-1 -105 -58.5 -156.5t-154.5 -51.5q-91 0 -154 53t-64 155zM535 569h485l-240 625zM604 1812q0 -43 37 -67.5t109 -24.5q70 0 107.5 24.5 t35.5 67.5q-2 44 -39.5 73.5t-108.5 29.5q-69 0 -105 -28t-36 -75z" />
<glyph unicode="&#xc6;" horiz-adv-x="2007" d="M63 0l529 1495h1165v-367h-678v-313h494v-176h-494v-371h693v-268h-836v414h-465l-164 -414h-244zM524 549h412v590h-178z" />
<glyph unicode="&#xc7;" horiz-adv-x="1495" d="M133 725q0 208 45 362.5t128 247.5t192.5 137.5t246.5 43.5q114 -1 203 -22t165 -67.5t129.5 -127.5t82.5 -197l-139 -117q-118 148 -441 148q-229 0 -356 -115.5t-129 -317.5q-2 -206 123.5 -321t370.5 -115q175 0 301 69t166 189l120 -92q-50 -213 -196.5 -328 t-388.5 -122q-4 -20 -4 -31q0 -13 8 -20t36.5 -12t80.5 -5q55 0 88.5 -35t33.5 -106q0 -201 -270 -201q-86 0 -157.5 28.5t-82.5 79.5l72 115q16 -28 64.5 -47.5t113.5 -19.5q97 0 131.5 11.5t34.5 39.5q0 16 -14.5 27.5t-38.5 11.5q-19 0 -61 -4.5t-58 -4.5q-46 0 -77 21.5 t-31 58.5q0 56 20 97q-238 27 -375 214.5t-137 526.5z" />
<glyph unicode="&#xc8;" horiz-adv-x="1290" d="M164 0v1495h909v-369h-764v-311h578v-176h-578v-371h776v-268h-921zM360 1925q110 22 230 -8.5t215.5 -108t130.5 -180.5l-25 -45q-82 94 -252 119.5t-288 -35.5z" />
<glyph unicode="&#xc9;" horiz-adv-x="1290" d="M164 0v1495h909v-369h-764v-311h578v-176h-578v-371h776v-268h-921zM317 1628q35 102 131 179t216 108t229 10l-10 -258q-119 61 -289 35.5t-252 -119.5z" />
<glyph unicode="&#xca;" horiz-adv-x="1290" d="M164 0v1495h909v-369h-764v-311h578v-176h-578v-371h776v-268h-921zM252 1608v69q94 16 196.5 104t155.5 185h41q53 -97 155.5 -185t196.5 -104v-69q-114 -8 -228.5 22t-143.5 88q-29 -58 -144 -88t-229 -22z" />
<glyph unicode="&#xcb;" horiz-adv-x="1290" d="M164 0v1495h909v-369h-764v-311h578v-176h-578v-371h776v-268h-921zM252 1741q0 71 40.5 104t123.5 33q151 0 151 -137q0 -65 -39.5 -98t-111.5 -33q-164 0 -164 131zM682 1741q0 71 40.5 104t123.5 33q151 0 151 -137q0 -65 -39.5 -98t-111.5 -33q-164 0 -164 131z" />
<glyph unicode="&#xcc;" horiz-adv-x="983" d="M102 0v289h299v837h-286v369h712v-369h-278v-837h291v-289h-738zM197 1925q110 22 229.5 -8.5t215 -108t130.5 -180.5l-24 -45q-82 94 -252.5 119.5t-288.5 -35.5z" />
<glyph unicode="&#xcd;" horiz-adv-x="983" d="M102 0v289h299v837h-286v369h712v-369h-278v-837h291v-289h-738zM195 1628q35 102 130.5 179t215.5 108t229 10l-10 -258q-119 61 -289 35.5t-252 -119.5z" />
<glyph unicode="&#xce;" horiz-adv-x="983" d="M102 0v289h299v837h-286v369h712v-369h-278v-837h291v-289h-738zM109 1608v69q94 16 196.5 104t155.5 185h41q53 -97 155.5 -185t196.5 -104v-69q-114 -8 -229 22t-144 88q-29 -58 -143.5 -88t-228.5 -22z" />
<glyph unicode="&#xcf;" horiz-adv-x="983" d="M102 0v289h299v837h-286v369h712v-369h-278v-837h291v-289h-738zM109 1741q0 71 40 104t123 33q152 0 152 -137q0 -65 -40 -98t-112 -33q-163 0 -163 131zM539 1741q0 71 40 104t123 33q152 0 152 -137q0 -65 -40 -98t-112 -33q-163 0 -163 131z" />
<glyph unicode="&#xd0;" horiz-adv-x="1597" d="M102 598v227h164v670h498q141 0 254 -42.5t198.5 -131.5t132 -237.5t46.5 -348.5q0 -735 -623 -735h-506v598h-164zM414 295h428q108 0 205.5 50.5t160 147.5t62.5 216q0 187 -127.5 307.5t-335.5 120.5h-393v-312h442v-227h-442v-303z" />
<glyph unicode="&#xd1;" horiz-adv-x="1597" d="M195 0v1495h340l679 -1278v1278h148v-1495h-299l-721 1208v-1208h-147zM383 1636q43 123 144.5 187.5t224.5 31.5q119 -30 218.5 -27t129.5 36l14 -27q-51 -129 -157.5 -187t-211.5 -22q-130 39 -220.5 31.5t-127.5 -49.5z" />
<glyph unicode="&#xd2;" horiz-adv-x="1495" d="M119 719q0 169 29 303t81 226t128.5 152.5t168 88t201.5 27.5t201.5 -27.5t168 -88t128.5 -152.5t81 -226t29 -303q0 -189 -45 -332.5t-127 -231.5t-191.5 -131.5t-244.5 -43.5t-244 43.5t-191.5 131.5t-127.5 231.5t-45 332.5zM246 719q-1 -123 37 -213.5t106 -142 t152 -75.5t186 -24q104 0 188 23.5t152.5 75t106 142t36.5 214.5q-3 179 -128 287t-355 108q-231 0 -355 -108t-126 -287zM483 1925q110 22 230 -8.5t215.5 -108t130.5 -180.5l-25 -45q-82 94 -252 119.5t-288 -35.5z" />
<glyph unicode="&#xd3;" horiz-adv-x="1495" d="M119 719q0 169 29 303t81 226t128.5 152.5t168 88t201.5 27.5t201.5 -27.5t168 -88t128.5 -152.5t81 -226t29 -303q0 -189 -45 -332.5t-127 -231.5t-191.5 -131.5t-244.5 -43.5t-244 43.5t-191.5 131.5t-127.5 231.5t-45 332.5zM246 719q-1 -123 37 -213.5t106 -142 t152 -75.5t186 -24q104 0 188 23.5t152.5 75t106 142t36.5 214.5q-3 179 -128 287t-355 108q-231 0 -355 -108t-126 -287zM420 1628q35 102 130.5 179t215.5 108t229 10l-10 -258q-119 61 -289 35.5t-252 -119.5z" />
<glyph unicode="&#xd4;" horiz-adv-x="1495" d="M119 719q0 169 29 303t81 226t128.5 152.5t168 88t201.5 27.5t201.5 -27.5t168 -88t128.5 -152.5t81 -226t29 -303q0 -189 -45 -332.5t-127 -231.5t-191.5 -131.5t-244.5 -43.5t-244 43.5t-191.5 131.5t-127.5 231.5t-45 332.5zM246 719q-1 -123 37 -213.5t106 -142 t152 -75.5t186 -24q104 0 188 23.5t152.5 75t106 142t36.5 214.5q-3 179 -128 287t-355 108q-231 0 -355 -108t-126 -287zM375 1608v69q94 16 196.5 104t155.5 185h41q53 -97 155.5 -185t196.5 -104v-69q-114 -8 -228.5 22t-143.5 88q-29 -58 -144 -88t-229 -22z" />
<glyph unicode="&#xd5;" horiz-adv-x="1495" d="M119 719q0 169 29 303t81 226t128.5 152.5t168 88t201.5 27.5t201.5 -27.5t168 -88t128.5 -152.5t81 -226t29 -303q0 -189 -45 -332.5t-127 -231.5t-191.5 -131.5t-244.5 -43.5t-244 43.5t-191.5 131.5t-127.5 231.5t-45 332.5zM246 719q-1 -123 37 -213.5t106 -142 t152 -75.5t186 -24q104 0 188 23.5t152.5 75t106 142t36.5 214.5q-3 179 -128 287t-355 108q-231 0 -355 -108t-126 -287zM383 1636q43 123 144.5 187.5t224.5 31.5q119 -30 218.5 -27t129.5 36l14 -27q-51 -129 -157.5 -187t-211.5 -22q-130 39 -220.5 31.5t-127.5 -49.5z " />
<glyph unicode="&#xd6;" horiz-adv-x="1495" d="M119 719q0 169 29 303t81 226t128.5 152.5t168 88t201.5 27.5t201.5 -27.5t168 -88t128.5 -152.5t81 -226t29 -303q0 -189 -45 -332.5t-127 -231.5t-191.5 -131.5t-244.5 -43.5t-244 43.5t-191.5 131.5t-127.5 231.5t-45 332.5zM246 719q-1 -123 37 -213.5t106 -142 t152 -75.5t186 -24q104 0 188 23.5t152.5 75t106 142t36.5 214.5q-3 179 -128 287t-355 108q-231 0 -355 -108t-126 -287zM375 1741q0 71 40.5 104t123.5 33q151 0 151 -137q0 -65 -39.5 -98t-111.5 -33q-164 0 -164 131zM805 1741q0 71 40.5 104t123.5 33q151 0 151 -137 q0 -65 -39.5 -98t-111.5 -33q-164 0 -164 131z" />
<glyph unicode="&#xd7;" d="M86 209l336 412l-316 372l101 92l303 -358l293 358l153 -122l-311 -398l354 -418l-98 -94l-342 404l-309 -396z" />
<glyph unicode="&#xd8;" horiz-adv-x="1495" d="M119 719q0 169 29 303t81 226t128.5 152.5t168 88t201.5 27.5q181 0 309 -74l76 164l158 -29l-111 -236q176 -201 176 -622q0 -189 -45 -332.5t-127 -231.5t-191.5 -131.5t-244.5 -43.5q-101 0 -190 24l-78 -168l-158 29l94 203q-132 82 -204 245t-72 406zM246 719 q-3 -322 258 -420l373 801q-63 14 -150 14q-231 0 -355 -108t-126 -287zM659 266q23 -2 68 -2q104 0 188 23.5t152.5 75t106 142t36.5 214.5q-2 109 -49.5 193.5t-138.5 134.5z" />
<glyph unicode="&#xd9;" horiz-adv-x="1495" d="M143 602v893h136v-739q0 -226 88 -316q123 -123 366 -123q238 0 352 123q86 96 86 299v756h140v-889q0 -318 -153 -472t-431 -154q-131 0 -236 37t-183.5 111t-121.5 194.5t-43 279.5zM432 1925q110 22 230 -8.5t215.5 -108t130.5 -180.5l-25 -45q-82 94 -252.5 119.5 t-288.5 -35.5z" />
<glyph unicode="&#xda;" horiz-adv-x="1495" d="M143 602v893h136v-739q0 -226 88 -316q123 -123 366 -123q238 0 352 123q86 96 86 299v756h140v-889q0 -318 -153 -472t-431 -154q-131 0 -236 37t-183.5 111t-121.5 194.5t-43 279.5zM420 1628q35 102 130.5 179t215.5 108t229 10l-10 -258q-119 61 -289 35.5 t-252 -119.5z" />
<glyph unicode="&#xdb;" horiz-adv-x="1495" d="M143 602v893h136v-739q0 -226 88 -316q123 -123 366 -123q238 0 352 123q86 96 86 299v756h140v-889q0 -318 -153 -472t-431 -154q-131 0 -236 37t-183.5 111t-121.5 194.5t-43 279.5zM344 1608v69q94 16 196.5 104t155.5 185h41q53 -96 156 -184.5t197 -104.5v-69 q-114 -8 -229 22t-144 88q-29 -58 -144 -88t-229 -22z" />
<glyph unicode="&#xdc;" horiz-adv-x="1495" d="M143 602v893h136v-739q0 -226 88 -316q123 -123 366 -123q238 0 352 123q86 96 86 299v756h140v-889q0 -318 -153 -472t-431 -154q-131 0 -236 37t-183.5 111t-121.5 194.5t-43 279.5zM344 1741q0 71 40.5 104t123.5 33q151 0 151 -137q0 -65 -39.5 -98t-111.5 -33 q-164 0 -164 131zM774 1741q0 71 40.5 104t123.5 33q152 0 152 -137q0 -65 -40 -98t-112 -33q-164 0 -164 131z" />
<glyph unicode="&#xdd;" horiz-adv-x="1392" d="M41 1495h149l408 -764l408 764h305l-576 -1020v-475h-145v516zM297 1628q35 102 130.5 179t215.5 108t229 10l-10 -258q-119 61 -288.5 35.5t-251.5 -119.5z" />
<glyph unicode="&#xde;" horiz-adv-x="1392" d="M238 0v1495h143v-229h317q251 0 378.5 -120t127.5 -388q0 -231 -126.5 -341t-381.5 -110h-315v-307h-143zM381 586h438q123 0 193.5 49t68.5 123q-2 81 -69 130.5t-193 49.5h-438v-352z" />
<glyph unicode="&#xdf;" d="M115 0v1104q0 196 115.5 304t299.5 108q215 0 339 -121t124 -328q0 -118 -57 -201.5t-162 -101.5q129 -17 196.5 -113t67.5 -252q0 -179 -126 -289t-361 -110h-182v256h202q335 0 338 203q2 91 -83.5 148t-254.5 57h-206v176h206q153 0 227 48t76 128q2 73 -79.5 123.5 t-229.5 50.5q-168 0 -242.5 -46t-74.5 -138v-1006h-133z" />
<glyph unicode="&#xe0;" d="M76 317q0 168 108.5 260.5t300.5 92.5q85 0 176 -19t150 -59q-7 144 -77 208t-216 64q-231 0 -332 -121l-8 265q118 139 361 139q144 0 230 -46t129.5 -156t43.5 -298v-647h-82l-26 72q-109 -92 -328 -92q-212 0 -321 91t-109 246zM236 354q0 -64 78.5 -111.5 t193.5 -47.5q208 0 305 90v145q-125 94 -291 94q-139 0 -212.5 -45.5t-73.5 -124.5zM276 1597q110 22 230 -8.5t215.5 -108t130.5 -180.5l-25 -45q-82 94 -252 119.5t-288 -35.5z" />
<glyph unicode="&#xe1;" d="M76 317q0 168 108.5 260.5t300.5 92.5q85 0 176 -19t150 -59q-7 144 -77 208t-216 64q-231 0 -332 -121l-8 265q118 139 361 139q144 0 230 -46t129.5 -156t43.5 -298v-647h-82l-26 72q-109 -92 -328 -92q-212 0 -321 91t-109 246zM233 1300q35 102 131 179t216 108 t229 10l-10 -258q-119 61 -289 35.5t-252 -119.5zM236 354q0 -64 78.5 -111.5t193.5 -47.5q208 0 305 90v145q-125 94 -291 94q-139 0 -212.5 -45.5t-73.5 -124.5z" />
<glyph unicode="&#xe2;" d="M76 317q0 168 108.5 260.5t300.5 92.5q85 0 176 -19t150 -59q-7 144 -77 208t-216 64q-231 0 -332 -121l-8 265q118 139 361 139q144 0 230 -46t129.5 -156t43.5 -298v-647h-82l-26 72q-109 -92 -328 -92q-212 0 -321 91t-109 246zM164 1280v70q94 16 196.5 104 t155.5 184h41q53 -96 155.5 -184t196.5 -104v-70q-113 -8 -228 22.5t-144 88.5q-29 -58 -144.5 -88.5t-228.5 -22.5zM236 354q0 -64 78.5 -111.5t193.5 -47.5q208 0 305 90v145q-125 94 -291 94q-139 0 -212.5 -45.5t-73.5 -124.5z" />
<glyph unicode="&#xe3;" d="M76 317q0 168 108.5 260.5t300.5 92.5q85 0 176 -19t150 -59q-7 144 -77 208t-216 64q-231 0 -332 -121l-8 265q118 139 361 139q144 0 230 -46t129.5 -156t43.5 -298v-647h-82l-26 72q-109 -92 -328 -92q-212 0 -321 91t-109 246zM158 1391q43 123 144 187.5t224 31.5 q119 -30 218.5 -27.5t129.5 35.5l15 -27q-51 -129 -157.5 -187t-211.5 -22q-130 39 -220.5 31.5t-127.5 -49.5zM236 354q0 -64 78.5 -111.5t193.5 -47.5q208 0 305 90v145q-125 94 -291 94q-139 0 -212.5 -45.5t-73.5 -124.5z" />
<glyph unicode="&#xe4;" d="M76 317q0 168 108.5 260.5t300.5 92.5q85 0 176 -19t150 -59q-7 144 -77 208t-216 64q-231 0 -332 -121l-8 265q118 139 361 139q144 0 230 -46t129.5 -156t43.5 -298v-647h-82l-26 72q-109 -92 -328 -92q-212 0 -321 91t-109 246zM156 1495q0 71 40 104t123 33 q152 0 152 -137q0 -65 -40 -98t-112 -33q-163 0 -163 131zM236 354q0 -64 78.5 -111.5t193.5 -47.5q208 0 305 90v145q-125 94 -291 94q-139 0 -212.5 -45.5t-73.5 -124.5zM586 1495q0 71 40.5 104t123.5 33q151 0 151 -137q0 -65 -39.5 -98t-111.5 -33q-164 0 -164 131z " />
<glyph unicode="&#xe5;" d="M76 317q0 168 108.5 260.5t300.5 92.5q85 0 176 -19t150 -59q-7 144 -77 208t-216 64q-231 0 -332 -121l-8 265q118 139 361 139q144 0 230 -46t129.5 -156t43.5 -298v-647h-82l-26 72q-109 -92 -328 -92q-212 0 -321 91t-109 246zM236 354q0 -64 78.5 -111.5 t193.5 -47.5q208 0 305 90v145q-125 94 -291 94q-139 0 -212.5 -45.5t-73.5 -124.5zM307 1423q1 114 58 169t155 55q93 0 154.5 -56t62.5 -168q-1 -105 -58.5 -157t-154.5 -52q-90 0 -153 53t-64 156zM379 1423q0 -43 37 -67.5t108 -24.5q70 0 108 24.5t36 67.5 q-2 44 -39.5 73.5t-108.5 29.5q-69 0 -105 -28t-36 -75z" />
<glyph unicode="&#xe6;" horiz-adv-x="1802" d="M72 317q0 168 108.5 260.5t300.5 92.5q81 0 170 -17.5t148 -54.5q1 8 2 23t2 22q-19 116 -88.5 168.5t-200.5 52.5q-231 0 -332 -121l-8 265q118 139 361 139q140 0 227.5 -46t130.5 -151q62 100 157.5 148.5t209.5 48.5q217 0 338.5 -166t121.5 -506h-796 q20 -133 106 -199.5t230 -68.5q130 -1 204.5 29t120.5 94l96 -72q-54 -123 -163.5 -200.5t-253.5 -77.5q-240 0 -363 178q-58 -93 -148.5 -135.5t-250.5 -42.5q-212 0 -321 91t-109 246zM231 354q0 -64 79 -111.5t194 -47.5q208 0 305 90v123q-1 4 -2 12.5t-2 13.5 q-121 90 -287 90q-139 0 -213 -46t-74 -124zM928 608h659q0 99 -94 173.5t-244 74.5q-105 0 -190.5 -53.5t-120.5 -145.5v-10z" />
<glyph unicode="&#xe7;" d="M82 555q0 155 33.5 271.5t94.5 185t139 102t173 33.5q320 0 420 -277l-94 -178q-49 63 -123 97t-193 34q-151 0 -239.5 -73.5t-89.5 -204.5q-2 -141 80 -232.5t249 -91.5q128 0 205.5 36.5t118.5 117.5l107 -146q-53 -121 -162.5 -185t-265.5 -64q-5 -25 -5 -31 q0 -13 8 -20t36.5 -12t80.5 -5q55 0 89 -35t34 -106q0 -201 -270 -201q-86 0 -157.5 28.5t-82.5 79.5l72 115q16 -28 64.5 -47.5t113.5 -19.5q97 0 131.5 11.5t34.5 39.5q0 16 -14.5 27.5t-38.5 11.5q-19 0 -61 -4.5t-58 -4.5q-46 0 -77.5 21.5t-31.5 58.5q0 53 23 101 q-161 33 -252.5 175.5t-91.5 391.5z" />
<glyph unicode="&#xe8;" d="M72 547q0 158 36.5 276.5t101.5 187.5t145.5 102.5t176.5 33.5q217 0 339 -166.5t122 -505.5h-796q40 -265 335 -268q130 -1 205 29t121 94l96 -72q-54 -123 -163.5 -200.5t-253.5 -77.5q-224 0 -344.5 155t-120.5 412zM197 608h663q0 99 -94 173.5t-244 74.5 q-119 0 -211.5 -67t-113.5 -181zM256 1597q110 22 229.5 -8.5t215 -108t130.5 -180.5l-24 -45q-82 94 -252.5 119.5t-288.5 -35.5z" />
<glyph unicode="&#xe9;" d="M72 547q0 158 36.5 276.5t101.5 187.5t145.5 102.5t176.5 33.5q217 0 339 -166.5t122 -505.5h-796q40 -265 335 -268q130 -1 205 29t121 94l96 -72q-54 -123 -163.5 -200.5t-253.5 -77.5q-224 0 -344.5 155t-120.5 412zM197 608h663q0 99 -94 173.5t-244 74.5 q-119 0 -211.5 -67t-113.5 -181zM213 1260q35 102 131 179t215.5 107.5t228.5 9.5l-10 -258q-119 61 -288.5 35.5t-251.5 -119.5z" />
<glyph unicode="&#xea;" d="M72 547q0 158 36.5 276.5t101.5 187.5t145.5 102.5t176.5 33.5q217 0 339 -166.5t122 -505.5h-796q40 -265 335 -268q130 -1 205 29t121 94l96 -72q-54 -123 -163.5 -200.5t-253.5 -77.5q-224 0 -344.5 155t-120.5 412zM164 1280v70q94 16 196.5 104t155.5 184h41 q53 -96 155.5 -184t196.5 -104v-70q-113 -8 -228 22.5t-144 88.5q-29 -58 -144.5 -88.5t-228.5 -22.5zM197 608h663q0 99 -94 173.5t-244 74.5q-119 0 -211.5 -67t-113.5 -181z" />
<glyph unicode="&#xeb;" d="M72 547q0 158 36.5 276.5t101.5 187.5t145.5 102.5t176.5 33.5q217 0 339 -166.5t122 -505.5h-796q40 -265 335 -268q130 -1 205 29t121 94l96 -72q-54 -123 -163.5 -200.5t-253.5 -77.5q-224 0 -344.5 155t-120.5 412zM156 1495q0 71 40 104t123 33q152 0 152 -137 q0 -65 -40 -98t-112 -33q-163 0 -163 131zM197 608h663q0 99 -94 173.5t-244 74.5q-119 0 -211.5 -67t-113.5 -181zM586 1495q0 71 40.5 104t123.5 33q151 0 151 -137q0 -65 -39.5 -98t-111.5 -33q-164 0 -164 131z" />
<glyph unicode="&#xec;" horiz-adv-x="675" d="M10 1597q110 22 230 -8.5t215.5 -108t130.5 -180.5l-25 -45q-82 94 -252.5 119.5t-288.5 -35.5zM102 756v348h390v-1104h-134v756h-256z" />
<glyph unicode="&#xed;" horiz-adv-x="675" d="M8 1300q35 102 131 179t216 108t229 10l-11 -258q-119 61 -288.5 35.5t-251.5 -119.5zM102 756v348h390v-1104h-134v756h-256z" />
<glyph unicode="&#xee;" horiz-adv-x="675" d="M-61 1280v70q94 16 196.5 104t155.5 184h41q53 -96 155.5 -184t196.5 -104v-70q-113 -8 -228.5 22.5t-144.5 88.5q-29 -58 -144 -88.5t-228 -22.5zM102 756v348h390v-1104h-134v756h-256z" />
<glyph unicode="&#xef;" horiz-adv-x="675" d="M-70 1495q0 71 40.5 104t123.5 33q152 0 152 -137q0 -65 -40 -98t-112 -33q-164 0 -164 131zM102 756v348h390v-1104h-134v756h-256zM360 1495q0 71 40.5 104t123.5 33q152 0 152 -137q0 -65 -40 -98t-112 -33q-164 0 -164 131z" />
<glyph unicode="&#xf0;" d="M72 541q0 606 479 606q79 0 154.5 -23t117.5 -59q-35 116 -88 199l-157 -62l-52 127l113 45q-69 57 -143 66l18 157q178 -29 289 -159l145 57l51 -127l-118 -47q133 -260 133 -776q0 -285 -125.5 -425t-343.5 -140q-78 0 -147 20t-129 64t-103.5 108.5t-68.5 159 t-25 209.5zM193 545q-1 -162 93 -244t259 -82q74 0 135.5 17.5t111 54.5t76 101.5t25.5 152.5q-2 125 -91.5 201.5t-258.5 76.5q-168 0 -258 -77t-92 -201zM842 1047v2v-2z" />
<glyph unicode="&#xf1;" d="M92 0v1126h133v-184q44 99 132.5 152t205.5 53q140 0 223 -48t124.5 -163t41.5 -315v-621h-129v494q0 158 -63.5 230.5t-206.5 72.5q-250 0 -328 -203v-594h-133zM158 1391q43 123 144 187.5t224 31.5q119 -30 218.5 -27.5t129.5 35.5l15 -27q-51 -129 -157.5 -187 t-211.5 -22q-130 39 -220.5 31.5t-127.5 -49.5z" />
<glyph unicode="&#xf2;" d="M51 543q0 313 125 458.5t346 145.5q222 0 346.5 -145t124.5 -459q0 -283 -127.5 -423t-343.5 -140q-104 0 -188.5 33.5t-148.5 100.5t-99 176t-35 253zM172 543q-1 -88 26.5 -153t77 -101t110.5 -53t136 -17t136 17t110.5 53t77 101t26.5 153q-2 127 -92 203.5t-258 76.5 q-167 0 -257.5 -76.5t-92.5 -203.5zM236 1597q110 22 229.5 -8.5t215 -108t130.5 -180.5l-25 -45q-82 94 -252 119.5t-288 -35.5z" />
<glyph unicode="&#xf3;" d="M51 543q0 313 125 458.5t346 145.5q222 0 346.5 -145t124.5 -459q0 -283 -127.5 -423t-343.5 -140q-104 0 -188.5 33.5t-148.5 100.5t-99 176t-35 253zM172 543q-1 -88 26.5 -153t77 -101t110.5 -53t136 -17t136 17t110.5 53t77 101t26.5 153q-2 127 -92 203.5t-258 76.5 q-167 0 -257.5 -76.5t-92.5 -203.5zM233 1300q35 102 131 179t216 108t229 10l-10 -258q-119 61 -289 35.5t-252 -119.5z" />
<glyph unicode="&#xf4;" d="M51 543q0 313 125 458.5t346 145.5q222 0 346.5 -145t124.5 -459q0 -283 -127.5 -423t-343.5 -140q-104 0 -188.5 33.5t-148.5 100.5t-99 176t-35 253zM164 1280v70q94 16 196.5 104t155.5 184h41q53 -96 155.5 -184t196.5 -104v-70q-113 -8 -228 22.5t-144 88.5 q-29 -58 -144.5 -88.5t-228.5 -22.5zM172 543q-1 -88 26.5 -153t77 -101t110.5 -53t136 -17t136 17t110.5 53t77 101t26.5 153q-2 127 -92 203.5t-258 76.5q-167 0 -257.5 -76.5t-92.5 -203.5z" />
<glyph unicode="&#xf5;" d="M51 543q0 313 125 458.5t346 145.5q222 0 346.5 -145t124.5 -459q0 -283 -127.5 -423t-343.5 -140q-104 0 -188.5 33.5t-148.5 100.5t-99 176t-35 253zM158 1391q43 123 144 187.5t224 31.5q119 -30 218.5 -27.5t129.5 35.5l15 -27q-51 -129 -157.5 -187t-211.5 -22 q-130 39 -220.5 31.5t-127.5 -49.5zM172 543q-1 -88 26.5 -153t77 -101t110.5 -53t136 -17t136 17t110.5 53t77 101t26.5 153q-2 127 -92 203.5t-258 76.5q-167 0 -257.5 -76.5t-92.5 -203.5z" />
<glyph unicode="&#xf6;" d="M51 543q0 313 125 458.5t346 145.5q222 0 346.5 -145t124.5 -459q0 -283 -127.5 -423t-343.5 -140q-104 0 -188.5 33.5t-148.5 100.5t-99 176t-35 253zM156 1495q0 71 40 104t123 33q152 0 152 -137q0 -65 -40 -98t-112 -33q-163 0 -163 131zM172 543q-1 -88 26.5 -153 t77 -101t110.5 -53t136 -17t136 17t110.5 53t77 101t26.5 153q-2 127 -92 203.5t-258 76.5q-167 0 -257.5 -76.5t-92.5 -203.5zM586 1495q0 71 40.5 104t123.5 33q151 0 151 -137q0 -65 -39.5 -98t-111.5 -33q-164 0 -164 131z" />
<glyph unicode="&#xf7;" d="M127 547v223h791v-223h-791zM387 997q0 71 40.5 104.5t123.5 33.5q151 0 151 -138q0 -65 -39.5 -98t-111.5 -33q-164 0 -164 131zM391 303q0 71 40.5 104t123.5 33q152 0 152 -137q0 -65 -40 -98t-112 -33q-164 0 -164 131z" />
<glyph unicode="&#xf8;" d="M51 543q0 313 125 458.5t346 145.5q142 0 244 -57l68 124l159 -26l-110 -205q110 -150 110 -440q0 -283 -127.5 -423t-343.5 -140q-85 0 -162 22l-67 -125l-160 27l92 172q-174 140 -174 467zM172 543q-3 -207 152 -283l297 555q-41 8 -99 8q-167 0 -257.5 -76.5 t-92.5 -203.5zM477 221q14 -2 45 -2q75 0 136 17t110.5 53t77 101t26.5 153q-3 143 -108 217z" />
<glyph unicode="&#xf9;" d="M92 465v661h131v-555q0 -177 59.5 -247t215.5 -70q116 0 200 49.5t121 136.5v686h133v-1126h-125l-10 180q-42 -89 -133.5 -144.5t-218.5 -55.5q-181 0 -277 113t-96 372zM236 1597q110 22 229.5 -8.5t215 -108t130.5 -180.5l-25 -45q-82 94 -252 119.5t-288 -35.5z" />
<glyph unicode="&#xfa;" d="M92 465v661h131v-555q0 -177 59.5 -247t215.5 -70q116 0 200 49.5t121 136.5v686h133v-1126h-125l-10 180q-42 -89 -133.5 -144.5t-218.5 -55.5q-181 0 -277 113t-96 372zM233 1300q35 102 131 179t216 108t229 10l-10 -258q-119 61 -289 35.5t-252 -119.5z" />
<glyph unicode="&#xfb;" d="M92 465v661h131v-555q0 -177 59.5 -247t215.5 -70q116 0 200 49.5t121 136.5v686h133v-1126h-125l-10 180q-42 -89 -133.5 -144.5t-218.5 -55.5q-181 0 -277 113t-96 372zM164 1280v70q94 16 196.5 104t155.5 184h41q53 -96 155.5 -184t196.5 -104v-70q-113 -8 -228 22.5 t-144 88.5q-29 -58 -144.5 -88.5t-228.5 -22.5z" />
<glyph unicode="&#xfc;" d="M92 465v661h131v-555q0 -177 59.5 -247t215.5 -70q116 0 200 49.5t121 136.5v686h133v-1126h-125l-10 180q-42 -89 -133.5 -144.5t-218.5 -55.5q-181 0 -277 113t-96 372zM154 1495q0 71 40 104t123 33q152 0 152 -137q0 -65 -40 -98t-112 -33q-163 0 -163 131zM584 1495 q0 71 40.5 104t123.5 33q151 0 151 -137q0 -65 -39.5 -98t-111.5 -33q-164 0 -164 131z" />
<glyph unicode="&#xfd;" d="M8 -252l58 197q42 -51 97.5 -80t106.5 -29q72 0 116 32t75 118l31 80q-54 137 -165 402t-195 462l-85 196h248q205 -524 303 -776l291 776h135l-440 -1206q-21 -58 -35.5 -93.5t-33.5 -77t-35.5 -65.5t-39 -49t-46.5 -37t-55.5 -20t-68.5 -8q-86 0 -171 54t-91 124z M233 1300q35 102 131 179t216 108t229 10l-10 -258q-119 61 -289 35.5t-252 -119.5z" />
<glyph unicode="&#xfe;" d="M113 -410v1905h133v-549q48 101 139 151t195 50q426 0 426 -619q0 -268 -121.5 -408t-317.5 -140q-187 0 -321 151v-541h-133zM246 387q37 -77 122.5 -120.5t190.5 -45.5q157 -3 241 77t83 247q0 129 -86 205.5t-232 76.5q-163 0 -241 -64.5t-78 -176.5v-199z" />
<glyph unicode="&#xff;" d="M8 -252l58 197q42 -51 97.5 -80t106.5 -29q72 0 116 32t75 118l31 80q-54 137 -165 402t-195 462l-85 196h248q205 -524 303 -776l291 776h135l-440 -1206q-21 -58 -35.5 -93.5t-33.5 -77t-35.5 -65.5t-39 -49t-46.5 -37t-55.5 -20t-68.5 -8q-86 0 -171 54t-91 124z M156 1495q0 71 40 104t123 33q152 0 152 -137q0 -65 -40 -98t-112 -33q-163 0 -163 131zM586 1495q0 71 40.5 104t123.5 33q151 0 151 -137q0 -65 -39.5 -98t-111.5 -33q-164 0 -164 131z" />
<glyph unicode="&#x152;" horiz-adv-x="2007" d="M137 721q0 211 45 366t130 248t197.5 137t256.5 44q112 0 215 -25v4h797v-367h-656v-313h469v-176h-469v-371h668v-268h-809v4q-95 -24 -213 -24q-297 0 -464 184.5t-167 556.5zM266 713q-2 -214 126.5 -331.5t373.5 -117.5q109 0 215 39v772q-106 39 -225 39 q-240 0 -364 -108t-126 -293z" />
<glyph unicode="&#x153;" horiz-adv-x="1904" d="M59 543q0 313 125 458.5t346 145.5q313 0 418 -270q57 138 164 204t242 66q217 0 339 -166.5t122 -505.5h-797q20 -133 106 -199.5t230 -68.5q130 -1 204.5 29t120.5 94l97 -72q-53 -123 -163.5 -200.5t-254.5 -77.5q-147 0 -250.5 68.5t-157.5 193.5 q-56 -132 -164.5 -197t-255.5 -65q-104 0 -188.5 33.5t-148.5 100.5t-99 176t-35 253zM180 543q-1 -88 26.5 -153t77 -101t110.5 -53t136 -17t136 17t111 53t77.5 101t26.5 153q-2 127 -92.5 203.5t-258.5 76.5q-167 0 -257.5 -76.5t-92.5 -203.5zM1018 608h663 q0 99 -94 173.5t-244 74.5q-119 0 -211.5 -67t-113.5 -181z" />
<glyph unicode="&#x178;" horiz-adv-x="1392" d="M41 1495h149l408 -764l408 764h305l-576 -1020v-475h-145v516zM252 1741q0 71 40.5 104t123.5 33q151 0 151 -137q0 -65 -39.5 -98t-111.5 -33q-164 0 -164 131zM682 1741q0 71 40.5 104t123.5 33q151 0 151 -137q0 -65 -39.5 -98t-111.5 -33q-164 0 -164 131z" />
<glyph unicode="&#x2c6;" d="M184 1280v70q94 16 197.5 104t155.5 184h41q53 -96 155.5 -184t196.5 -104v-70q-113 -8 -228.5 22.5t-144.5 88.5q-29 -58 -144.5 -88.5t-228.5 -22.5z" />
<glyph unicode="&#x2dc;" d="M178 1391q43 123 144.5 187.5t224.5 31.5q119 -30 218.5 -27.5t129.5 35.5l14 -27q-51 -129 -157 -187t-211 -22q-130 39 -220.5 31.5t-127.5 -49.5z" />
<glyph unicode="&#x2000;" horiz-adv-x="1018" />
<glyph unicode="&#x2001;" horiz-adv-x="2036" />
<glyph unicode="&#x2002;" horiz-adv-x="1018" />
<glyph unicode="&#x2003;" horiz-adv-x="2036" />
<glyph unicode="&#x2004;" horiz-adv-x="678" />
<glyph unicode="&#x2005;" horiz-adv-x="509" />
<glyph unicode="&#x2006;" horiz-adv-x="339" />
<glyph unicode="&#x2007;" horiz-adv-x="339" />
<glyph unicode="&#x2008;" horiz-adv-x="254" />
<glyph unicode="&#x2009;" horiz-adv-x="407" />
<glyph unicode="&#x200a;" horiz-adv-x="113" />
<glyph unicode="&#x2010;" horiz-adv-x="675" d="M72 524v152h553v-152h-553z" />
<glyph unicode="&#x2011;" horiz-adv-x="675" d="M72 524v152h553v-152h-553z" />
<glyph unicode="&#x2012;" horiz-adv-x="675" d="M72 524v152h553v-152h-553z" />
<glyph unicode="&#x2013;" d="M72 524v152h942v-152h-942z" />
<glyph unicode="&#x2014;" horiz-adv-x="1699" d="M72 524v152h1556v-152h-1556z" />
<glyph unicode="&#x2018;" horiz-adv-x="471" d="M57 928q-19 119 17 248t118 228.5t187 131.5l41 -29q-49 -40 -83.5 -113t-48.5 -153.5t-7.5 -165t34.5 -147.5h-258z" />
<glyph unicode="&#x2019;" horiz-adv-x="471" d="M51 956q49 40 83.5 113t48.5 154t7.5 165.5t-34.5 147.5h258q19 -119 -17 -248t-118 -228.5t-187 -131.5z" />
<glyph unicode="&#x201a;" horiz-adv-x="471" d="M31 -395q49 40 83.5 113t48 153.5t7 165t-34.5 147.5h258q19 -119 -16.5 -247.5t-117.5 -228.5t-187 -132z" />
<glyph unicode="&#x201c;" horiz-adv-x="880" d="M47 928q-19 119 17 248t118 228.5t187 131.5l41 -29q-49 -40 -83.5 -113t-48.5 -153.5t-7.5 -165t34.5 -147.5h-258zM457 928q-19 119 16.5 247.5t117.5 228.5t187 132l41 -29q-49 -40 -83.5 -113t-48 -153.5t-7 -165t34.5 -147.5h-258z" />
<glyph unicode="&#x201d;" horiz-adv-x="880" d="M33 956q49 40 83.5 113t48 154t7 165.5t-34.5 147.5h258q19 -119 -16.5 -247.5t-117.5 -228.5t-187 -132zM442 956q49 40 83.5 113t48.5 154t7.5 165.5t-34.5 147.5h258q19 -119 -17 -248t-118 -228.5t-187 -131.5z" />
<glyph unicode="&#x201e;" horiz-adv-x="880" d="M12 -395q49 40 83.5 113t48.5 153.5t7.5 165t-34.5 147.5h258q19 -119 -17 -248t-118 -228.5t-187 -131.5zM422 -395q49 40 83.5 113t48 153.5t7 165t-34.5 147.5h258q19 -119 -16.5 -247.5t-117.5 -228.5t-187 -132z" />
<glyph unicode="&#x2022;" horiz-adv-x="675" d="M117 565q0 101 57 155t170 54q101 0 158 -54.5t57 -154.5q0 -92 -58.5 -147.5t-156.5 -55.5q-110 0 -168.5 54.5t-58.5 148.5z" />
<glyph unicode="&#x2026;" horiz-adv-x="1699" d="M184 135q0 79 39.5 115.5t120.5 36.5q148 0 148 -152q0 -72 -39.5 -108.5t-108.5 -36.5q-160 0 -160 145zM696 135q0 79 39.5 115.5t120.5 36.5q148 0 148 -152q0 -72 -39.5 -108.5t-108.5 -36.5q-160 0 -160 145zM1208 135q0 79 39.5 115.5t120.5 36.5q148 0 148 -152 q0 -72 -39.5 -108.5t-108.5 -36.5q-160 0 -160 145z" />
<glyph unicode="&#x202f;" horiz-adv-x="407" />
<glyph unicode="&#x2039;" horiz-adv-x="471" d="M41 555l330 612v-430l-228 -182l213 -137v-438z" />
<glyph unicode="&#x203a;" horiz-adv-x="471" d="M115 737v430l329 -612l-315 -575v438l213 137z" />
<glyph unicode="&#x205f;" horiz-adv-x="509" />
<glyph unicode="&#x20ac;" horiz-adv-x="1495" d="M41 457v166h158q-4 66 -4 102v18h-154v166h164q19 159 71 277t131.5 190t179 106.5t220.5 33.5q114 -1 203 -22t165 -67.5t129 -127.5t82 -197l-139 -117q-118 148 -440 148q-161 0 -273 -58.5t-165 -165.5h467v-166h-512q-2 -14 -2 -43q0 -27 4 -77h510v-166h-455 q116 -193 434 -193q175 0 301 69t166 189l121 -92q-52 -219 -207 -334.5t-410 -115.5q-217 0 -364.5 120t-200.5 357h-180z" />
<glyph unicode="&#x25fc;" horiz-adv-x="1126" d="M0 0v1126h1126v-1126h-1126z" />
</font>
</defs>
</svg>
